<mxfile host="app.diagrams.net" modified="2024-05-03T08:58:57.158Z" agent="Mozilla/5.0 (Windows NT 10.0; Win64; x64) AppleWebKit/537.36 (KHTML, like Gecko) Chrome/124.0.0.0 Safari/537.36" etag="NbWzc3BSTeSr1qVPM9NL" version="24.3.1" type="device">
  <diagram name="Page-1" id="xQnkz2gyqaugL-oDEthB">
    <mxGraphModel dx="2311" dy="652" grid="1" gridSize="10" guides="1" tooltips="1" connect="1" arrows="1" fold="1" page="1" pageScale="1" pageWidth="850" pageHeight="1100" math="0" shadow="0">
      <root>
        <mxCell id="0" />
        <mxCell id="1" parent="0" />
        <mxCell id="x95QMlqy5wYq6lgR7YRD-1" value="Doctor" style="html=1;whiteSpace=wrap;" vertex="1" parent="1">
          <mxGeometry x="-120" y="180" width="110" height="50" as="geometry" />
        </mxCell>
        <mxCell id="x95QMlqy5wYq6lgR7YRD-2" value="Nurse" style="html=1;whiteSpace=wrap;" vertex="1" parent="1">
          <mxGeometry x="160" y="180" width="110" height="50" as="geometry" />
        </mxCell>
        <mxCell id="x95QMlqy5wYq6lgR7YRD-3" value="Pharmacist" style="html=1;whiteSpace=wrap;" vertex="1" parent="1">
          <mxGeometry x="-450" y="180" width="110" height="50" as="geometry" />
        </mxCell>
        <mxCell id="x95QMlqy5wYq6lgR7YRD-4" value="Lab Staff" style="html=1;whiteSpace=wrap;" vertex="1" parent="1">
          <mxGeometry x="-120" y="50" width="130" height="50" as="geometry" />
        </mxCell>
        <mxCell id="x95QMlqy5wYq6lgR7YRD-5" value="System" style="html=1;whiteSpace=wrap;" vertex="1" parent="1">
          <mxGeometry x="-120" y="340" width="110" height="50" as="geometry" />
        </mxCell>
        <mxCell id="x95QMlqy5wYq6lgR7YRD-6" value="&lt;div&gt;access&lt;/div&gt;&lt;div&gt;&amp;nbsp;patient info&lt;/div&gt;" style="html=1;verticalAlign=bottom;endArrow=block;curved=0;rounded=0;exitX=0.25;exitY=1;exitDx=0;exitDy=0;entryX=0.25;entryY=0;entryDx=0;entryDy=0;" edge="1" parent="1" source="x95QMlqy5wYq6lgR7YRD-1" target="x95QMlqy5wYq6lgR7YRD-5">
          <mxGeometry x="0.0909" y="-37" width="80" relative="1" as="geometry">
            <mxPoint x="380" y="340" as="sourcePoint" />
            <mxPoint x="460" y="340" as="targetPoint" />
            <mxPoint as="offset" />
          </mxGeometry>
        </mxCell>
        <mxCell id="x95QMlqy5wYq6lgR7YRD-7" value="provide patient info" style="html=1;verticalAlign=bottom;endArrow=block;curved=0;rounded=0;entryX=0.676;entryY=0.973;entryDx=0;entryDy=0;entryPerimeter=0;exitX=0.682;exitY=0;exitDx=0;exitDy=0;exitPerimeter=0;" edge="1" parent="1" source="x95QMlqy5wYq6lgR7YRD-5" target="x95QMlqy5wYq6lgR7YRD-1">
          <mxGeometry x="-0.2864" y="-45" width="80" relative="1" as="geometry">
            <mxPoint x="-46" y="330" as="sourcePoint" />
            <mxPoint x="30" y="330" as="targetPoint" />
            <mxPoint as="offset" />
          </mxGeometry>
        </mxCell>
        <mxCell id="x95QMlqy5wYq6lgR7YRD-8" value="communicate/&lt;div&gt;provide patient info if requested&lt;/div&gt;" style="html=1;verticalAlign=bottom;endArrow=block;curved=0;rounded=0;entryX=0;entryY=0.25;entryDx=0;entryDy=0;" edge="1" parent="1" target="x95QMlqy5wYq6lgR7YRD-2">
          <mxGeometry width="80" relative="1" as="geometry">
            <mxPoint x="-10" y="190" as="sourcePoint" />
            <mxPoint x="70" y="190" as="targetPoint" />
          </mxGeometry>
        </mxCell>
        <mxCell id="x95QMlqy5wYq6lgR7YRD-9" value="communicate/&lt;div&gt;request patient info&lt;/div&gt;" style="html=1;verticalAlign=bottom;endArrow=block;curved=0;rounded=0;exitX=0;exitY=0.75;exitDx=0;exitDy=0;entryX=1;entryY=0.75;entryDx=0;entryDy=0;" edge="1" parent="1" source="x95QMlqy5wYq6lgR7YRD-2" target="x95QMlqy5wYq6lgR7YRD-1">
          <mxGeometry x="-0.0588" y="33" width="80" relative="1" as="geometry">
            <mxPoint x="380" y="340" as="sourcePoint" />
            <mxPoint x="460" y="340" as="targetPoint" />
            <mxPoint as="offset" />
          </mxGeometry>
        </mxCell>
        <mxCell id="x95QMlqy5wYq6lgR7YRD-11" value="communicate" style="html=1;verticalAlign=bottom;endArrow=block;curved=0;rounded=0;entryX=0;entryY=0.75;entryDx=0;entryDy=0;exitX=1;exitY=0.75;exitDx=0;exitDy=0;" edge="1" parent="1" source="x95QMlqy5wYq6lgR7YRD-3" target="x95QMlqy5wYq6lgR7YRD-1">
          <mxGeometry x="0.0706" y="-21" width="80" relative="1" as="geometry">
            <mxPoint x="-250" y="220" as="sourcePoint" />
            <mxPoint x="-170" y="220" as="targetPoint" />
            <mxPoint as="offset" />
          </mxGeometry>
        </mxCell>
        <mxCell id="x95QMlqy5wYq6lgR7YRD-12" value="communicate/&lt;div&gt;provide patient info&lt;/div&gt;" style="html=1;verticalAlign=bottom;endArrow=block;curved=0;rounded=0;entryX=1;entryY=0.25;entryDx=0;entryDy=0;exitX=0;exitY=0.25;exitDx=0;exitDy=0;" edge="1" parent="1" source="x95QMlqy5wYq6lgR7YRD-1" target="x95QMlqy5wYq6lgR7YRD-3">
          <mxGeometry width="80" relative="1" as="geometry">
            <mxPoint x="-240" y="180" as="sourcePoint" />
            <mxPoint x="-160" y="180" as="targetPoint" />
          </mxGeometry>
        </mxCell>
        <mxCell id="x95QMlqy5wYq6lgR7YRD-13" value="communicate/&lt;div&gt;provide patient info&lt;/div&gt;" style="html=1;verticalAlign=bottom;endArrow=block;curved=0;rounded=0;exitX=0.25;exitY=0;exitDx=0;exitDy=0;entryX=0.208;entryY=0.987;entryDx=0;entryDy=0;entryPerimeter=0;" edge="1" parent="1" source="x95QMlqy5wYq6lgR7YRD-1" target="x95QMlqy5wYq6lgR7YRD-4">
          <mxGeometry x="-0.0014" y="47" width="80" relative="1" as="geometry">
            <mxPoint x="-90" y="150" as="sourcePoint" />
            <mxPoint x="-10" y="150" as="targetPoint" />
            <mxPoint as="offset" />
          </mxGeometry>
        </mxCell>
        <mxCell id="x95QMlqy5wYq6lgR7YRD-14" value="communicate/&lt;div&gt;provide results&lt;/div&gt;" style="html=1;verticalAlign=bottom;endArrow=block;curved=0;rounded=0;exitX=0.75;exitY=1;exitDx=0;exitDy=0;entryX=0.864;entryY=-0.04;entryDx=0;entryDy=0;entryPerimeter=0;" edge="1" parent="1" source="x95QMlqy5wYq6lgR7YRD-4" target="x95QMlqy5wYq6lgR7YRD-1">
          <mxGeometry x="-0.0097" y="44" width="80" relative="1" as="geometry">
            <mxPoint x="-30" y="130" as="sourcePoint" />
            <mxPoint x="50" y="130" as="targetPoint" />
            <mxPoint as="offset" />
          </mxGeometry>
        </mxCell>
        <mxCell id="x95QMlqy5wYq6lgR7YRD-15" value="communicate" style="html=1;verticalAlign=bottom;endArrow=block;curved=0;rounded=0;exitX=0.25;exitY=0;exitDx=0;exitDy=0;entryX=0;entryY=0;entryDx=0;entryDy=0;" edge="1" parent="1" source="x95QMlqy5wYq6lgR7YRD-3" target="x95QMlqy5wYq6lgR7YRD-4">
          <mxGeometry x="-0.0055" y="29" width="80" relative="1" as="geometry">
            <mxPoint x="-345" y="150" as="sourcePoint" />
            <mxPoint x="-265" y="150" as="targetPoint" />
            <mxPoint as="offset" />
          </mxGeometry>
        </mxCell>
        <mxCell id="x95QMlqy5wYq6lgR7YRD-16" value="communicate" style="html=1;verticalAlign=bottom;endArrow=block;curved=0;rounded=0;entryX=0.827;entryY=0.027;entryDx=0;entryDy=0;entryPerimeter=0;exitX=0;exitY=0.75;exitDx=0;exitDy=0;" edge="1" parent="1" source="x95QMlqy5wYq6lgR7YRD-4" target="x95QMlqy5wYq6lgR7YRD-3">
          <mxGeometry width="80" relative="1" as="geometry">
            <mxPoint x="-210" y="110" as="sourcePoint" />
            <mxPoint x="-130" y="110" as="targetPoint" />
          </mxGeometry>
        </mxCell>
        <mxCell id="x95QMlqy5wYq6lgR7YRD-17" value="communicate" style="html=1;verticalAlign=bottom;endArrow=block;curved=0;rounded=0;exitX=0.664;exitY=1.067;exitDx=0;exitDy=0;exitPerimeter=0;" edge="1" parent="1" source="x95QMlqy5wYq6lgR7YRD-3">
          <mxGeometry x="0.0069" y="-20" width="80" relative="1" as="geometry">
            <mxPoint x="-300" y="290" as="sourcePoint" />
            <mxPoint x="190" y="233" as="targetPoint" />
            <Array as="points">
              <mxPoint x="-377" y="430" />
              <mxPoint x="190" y="430" />
            </Array>
            <mxPoint as="offset" />
          </mxGeometry>
        </mxCell>
        <mxCell id="x95QMlqy5wYq6lgR7YRD-19" value="communicate" style="html=1;verticalAlign=bottom;endArrow=block;curved=0;rounded=0;exitX=0.75;exitY=1;exitDx=0;exitDy=0;entryX=0.25;entryY=1;entryDx=0;entryDy=0;" edge="1" parent="1" source="x95QMlqy5wYq6lgR7YRD-2" target="x95QMlqy5wYq6lgR7YRD-3">
          <mxGeometry width="80" relative="1" as="geometry">
            <mxPoint x="240" y="430" as="sourcePoint" />
            <mxPoint x="-460" y="470" as="targetPoint" />
            <Array as="points">
              <mxPoint x="243" y="470" />
              <mxPoint x="-422" y="470" />
            </Array>
          </mxGeometry>
        </mxCell>
      </root>
    </mxGraphModel>
  </diagram>
</mxfile>
